<svg version="1.2" xmlns="http://www.w3.org/2000/svg" viewBox="0 0 842 800" width="842" height="800">
	<title>github</title>
	<style>
		.s0 { fill: #ffffff } 
	</style>
	<path class="s0" d="m524.8 723.3q-10 4-20.5 6.9-10.4 2.9-21.1 4.6-10.7 1.7-21.5 2.2-10.9 0.4-21.7-0.4-10.7 0.9-21.5 0.5-10.8-0.4-21.5-2.1-10.7-1.7-21.1-4.6-10.4-2.9-20.4-7.1-2.7-2.2-4.9-5-2.2-2.8-3.7-6-1.5-3.2-2.3-6.7-0.8-3.5-0.7-7c0-9.3-0.4-33.6-0.5-66-108 23.4-130.8-52.1-130.8-52.1-1.7-5.8-4-11.4-6.8-16.8-2.7-5.4-6-10.6-9.6-15.4-3.7-4.8-7.8-9.3-12.3-13.4-4.4-4.1-9.3-7.9-14.4-11.1-35.2-24.1 2.7-23.6 2.7-23.6 6.1 0.9 12.1 2.4 17.9 4.6 5.8 2.2 11.3 5.1 16.4 8.5 5.2 3.5 9.9 7.5 14.1 12 4.2 4.6 7.9 9.6 11 14.9 5.3 9.6 12.4 18 20.9 24.8 8.6 6.8 18.4 11.9 28.9 14.9 10.5 3 21.5 3.9 32.3 2.6 10.8-1.3 21.3-4.7 30.8-10.1q0.7-7.3 2.6-14.4 2-7.1 5.1-13.7 3.2-6.7 7.5-12.7 4.3-6 9.5-11.1c-86.1-9.8-176.7-43.1-176.7-191.7-0.2-9.6 0.6-19.1 2.3-28.5 1.6-9.4 4.2-18.6 7.6-27.5 3.4-8.9 7.6-17.4 12.7-25.5 5-8.1 10.8-15.7 17.3-22.7-2.9-8.3-5.1-16.8-6.4-25.5-1.3-8.7-1.8-17.4-1.5-26.2 0.3-8.8 1.5-17.5 3.4-26 2-8.6 4.8-16.9 8.3-25 3.5-8 32.6-10.4 106.7 39.8 15.8-4.3 31.9-7.6 48.1-9.8 16.3-2.2 32.7-3.3 49.1-3.3 16.4 0 32.7 1.1 49 3.3 16.2 2.2 32.3 5.5 48.1 9.8 74.1-50.2 106.6-39.8 106.6-39.8 3.6 8.1 6.3 16.4 8.3 25 2 8.5 3.1 17.2 3.5 26 0.3 8.8-0.2 17.5-1.5 26.2-1.3 8.7-3.5 17.2-6.4 25.5 6.5 7 12.3 14.6 17.3 22.7 5 8.1 9.3 16.6 12.7 25.5 3.4 8.9 5.9 18.1 7.6 27.5 1.7 9.4 2.4 18.9 2.3 28.5 0 149-90.8 181.9-177.2 191.5 4.6 4.6 8.7 9.8 12.2 15.4 3.6 5.5 6.5 11.4 8.7 17.6 2.3 6.2 3.9 12.6 4.8 19.1 0.9 6.5 1.1 13.1 0.6 19.7 0 51.9-0.4 93.8-0.4 106.5q0.1 3.5-0.5 7-0.7 3.5-2.2 6.7-1.5 3.3-3.7 6-2.3 2.8-5.1 5z"/>
</svg>